<?xml version="1.0" encoding="utf-8"?>
<!-- Generator: Adobe Illustrator 28.0.0, SVG Export Plug-In . SVG Version: 6.00 Build 0)  -->
<svg version="1.1" id="Layer_1" xmlns="http://www.w3.org/2000/svg" xmlns:xlink="http://www.w3.org/1999/xlink" x="0px" y="0px"
	 viewBox="0 0 500 347.4" style="enable-background:new 0 0 500 347.4;" xml:space="preserve">
<style type="text/css">
	.st0{opacity:0.3;}
	.st1{fill:#B9BEC2;}
	.st2{fill:#D7D9DD;}
	.st3{clip-path:url(#XMLID_00000049213013323501854420000010178002848468209793_);}
	.st4{fill:#FB2D27;}
	.st5{fill:#00A848;}
	.st6{fill:url(#SVGID_00000080920293346400965010000002482172954567739031_);}
	.st7{fill:#FFFFFF;}
	.st8{fill:#2484F9;}
	.st9{fill:#0051B0;}
</style>
<g>
	<g>
		<g class="st0">
			<defs>
				<path id="SVGID_1_" class="st0" d="M417,281H79.8V93c0-5.9,4.8-10.7,10.7-10.7h315.9c5.9,0,10.7,4.8,10.7,10.7V281z"/>
			</defs>
			<clipPath id="SVGID_00000061445816405630985780000001380491854920611994_">
				<use xlink:href="#SVGID_1_"  style="overflow:visible;"/>
			</clipPath>
		</g>
		<path class="st1" d="M417,281H79.8V93c0-5.9,4.8-10.7,10.7-10.7h315.9c5.9,0,10.7,4.8,10.7,10.7V281z"/>
		<rect x="42.5" y="281" class="st2" width="411.7" height="17.8"/>
		<g>
			<defs>
				<rect id="XMLID_00000078032212146602607980000006939685430560559803_" x="90.9" y="92" width="315" height="179.3"/>
			</defs>
			<use xlink:href="#XMLID_00000078032212146602607980000006939685430560559803_"  style="overflow:visible;fill:#FFFFFF;"/>
			<clipPath id="XMLID_00000023971509534127892820000011800396970288461445_">
				<use xlink:href="#XMLID_00000078032212146602607980000006939685430560559803_"  style="overflow:visible;"/>
			</clipPath>
			<g style="clip-path:url(#XMLID_00000023971509534127892820000011800396970288461445_);">
				<path class="st4" d="M369.6,185c-38.7-66.9-124.3-89.9-191.2-51.2c-21.3,12.3-38.9,29.9-51.2,51.2l8.4,151.2L369.6,185z"/>
				<path class="st5" d="M187.8,290l-60.6-105c-38.6,66.9-15.7,152.5,51.2,191.2c21.3,12.3,45.4,18.8,70,18.8l137.2-140L187.8,290z"
					/>
				
					<linearGradient id="SVGID_00000007392699385158340780000014383111573014364586_" gradientUnits="userSpaceOnUse" x1="228.0802" y1="106.9779" x2="349.2863" y2="316.5552" gradientTransform="matrix(1 0 0 -1 0 502)">
					<stop  offset="0" style="stop-color:#FFC300"/>
					<stop  offset="1" style="stop-color:#FFB600"/>
				</linearGradient>
				<path style="fill:url(#SVGID_00000007392699385158340780000014383111573014364586_);" d="M309,290l-60.6,105
					c77.3,0,139.9-62.7,139.9-140c0-24.6-6.5-48.7-18.8-69.9H248.4L309,290z"/>
				<path class="st7" d="M248.4,325c38.6,0,70-31.3,70-70s-31.3-70-70-70s-70,31.3-70,70S209.8,325,248.4,325z"/>
				<path class="st8" d="M248.4,310.4c30.6,0,55.4-24.8,55.4-55.4c0-30.6-24.8-55.4-55.4-55.4c0,0,0,0,0,0
					c-30.6,0-55.4,24.8-55.4,55.4C193,285.6,217.8,310.4,248.4,310.4z"/>
			</g>
		</g>
	</g>
	<g>
		<circle class="st9" cx="396.7" cy="100.6" r="60.7"/>
		<g>
			<path class="st7" d="M387.7,128.2h-12.4c-1.8,0-3.3-0.6-4.6-1.9c-1.3-1.3-1.9-2.8-1.9-4.6v-12.4c2.6,0,4.9-0.8,6.8-2.5
				s2.9-3.8,2.9-6.3s-1-4.7-2.9-6.3s-4.2-2.5-6.8-2.5V79.4c0-1.8,0.6-3.3,1.9-4.6s2.8-1.9,4.6-1.9h13c0-2.3,0.8-4.2,2.4-5.8
				c1.6-1.6,3.5-2.4,5.8-2.4s4.2,0.8,5.8,2.4c1.6,1.6,2.4,3.5,2.4,5.8h13c1.8,0,3.3,0.6,4.6,1.9s1.9,2.8,1.9,4.6v13
				c2.3,0,4.2,0.8,5.8,2.4c1.6,1.6,2.4,3.5,2.4,5.8s-0.8,4.2-2.4,5.8c-1.6,1.6-3.5,2.4-5.8,2.4v13c0,1.8-0.6,3.3-1.9,4.6
				c-1.3,1.3-2.8,1.9-4.6,1.9h-12.4c0-2.7-0.9-5-2.6-6.9s-3.8-2.9-6.2-2.9s-4.5,1-6.2,2.9S387.7,125.5,387.7,128.2z"/>
		</g>
	</g>
</g>
</svg>
